<svg xmlns="http://www.w3.org/2000/svg" viewBox="0 0 370.75 141.01" class="svg-logo">
    <defs>
        <style>.a {
                fill: #ffd100;
            }

            .b {
                fill: #eb2938;
            }

            .c {
                fill: #0099db;
            }

            .d {
                fill: #69bf29;
            }</style>
    </defs>
    <title>slt-logo</title>
    <path class="a"
          d="M275.59,16.06c0.6,0.9.8,2.4,2,2.9,1.8,1.1,2.2,3.5,1.8,5.8,0,0-1.1,6.7-8,14.1l-1,1.1a4.3,4.3,0,0,1-3.1,1.2c-1.3.1-4.6-1.9-6.1-1.4-2.5.5-4.4-.2-5-3.3a22.24,22.24,0,0,0-1.7-5.4c-0.3-.7-2.4-2.1-2.5-3.9,0,0-1.6-7.7,3.9-9.1,3.3-.9,8.1-1.2,9.5-1.5s2.1-1.9,3.8-2.5a6.54,6.54,0,0,1,6.4,2"/>
    <path class="b"
          d="M135,7c0.3,2.7.5,5.6,1,8.5a14.68,14.68,0,0,0,1.5,3.1c0.3,0.8.4,1.9,0.9,2.4a5.46,5.46,0,0,0,3.1,1.8c1.2,0.3,2.4-1.1,3.1-.5a7.26,7.26,0,0,0,7.4,1.5,38.59,38.59,0,0,0,5.3-2.5,2.85,2.85,0,0,0,1.5-2.4,2.38,2.38,0,0,0-1-2.1,52.7,52.7,0,0,0-5.2-2.5,4,4,0,0,0-3.8.2c-1,.8-1.9,2.7-3.6,4.3s-2.5.3-2.8-1.1a6.41,6.41,0,0,1,.4-3.3c0.5-1,4.3-5.8,5.9-7.8s-1.6-7.2-4.4-6.5-9.2,1.6-9.3,6.9"/>
    <path class="b"
          d="M135.59,28.26c-1.9,1.9-1.3,8.9.1,10.3a2.89,2.89,0,0,0,2.8.1,7,7,0,0,0,3.5-3.5c0.9-3,1-5.3-.5-7-2-1.9-4-1.7-5.9.1"/>
    <path class="b" d="M129.79,24c-0.5-2.3-3.7-3.9-6.2-3.8-1.3.1-3.9,0.2-4.4,2.5s2.1,6.3,5.3,5.8,5.9-2.2,5.3-4.5"/>
    <path class="c"
          d="M86.79,30.86c1-1.5,1.8-3.7.8-5.7a7.45,7.45,0,0,0-1.9-2.7,26.52,26.52,0,0,0-4.4-3.2c-0.6-.4-1.3-0.8-2.1-1.3a35.55,35.55,0,0,0-3.6-1.6c-7.3-2.3-15.9,1.1-16.3,1.4a4.15,4.15,0,0,0-1.2,1.1c-0.8,1.6.3,2.9,0.9,3.7s4.4,3.9,9.4,7.3a23.12,23.12,0,0,0,7.1,2.9,18,18,0,0,0,6.1.8,7.19,7.19,0,0,0,5.2-2.7"/>
    <path class="d"
          d="M174.29,132.26c2.7,2.9,8.4,2.6,10.6,2.5a5.64,5.64,0,0,0,3-.8,2.14,2.14,0,0,1,1.9-.1c1.3,0.5,2.4,1.1,3.7,1.5,2.7,0.9,5.8,4.3,7.9,5.3,1.9,0.9,3.6,0,3.8-2.1a7.83,7.83,0,0,0-1-5,32.44,32.44,0,0,0-4.8-6.4,19.46,19.46,0,0,0-8.1-4.4,15.53,15.53,0,0,0-3.1-.3,20.56,20.56,0,0,0-10.9,1.9c-0.7.4-3.4,1.3-3.7,4-0.1,1.4-.4,2.5.7,3.9"/>
    <path
        d="M44.49,74.36l-1.4-.3a4.3,4.3,0,0,0-1.6,0c-0.6.1-1.2,0.3-1.8,0.4a8,8,0,0,1-3.1.1,0.38,0.38,0,0,1-.3-0.5c0.3-1.8.6-3.5,0.9-5.3v-0.4a19.68,19.68,0,0,1,.5-3.5,7.77,7.77,0,0,0,.2-1.6,1.7,1.7,0,0,1,.1-0.7,26,26,0,0,0,1-4c0.1-.2.1-0.5,0.2-0.7l1.8-4.8a28,28,0,0,0,.9-3.1c0.1-.4.3-0.8,0.4-1.2a0.77,0.77,0,0,1,.3-0.2c0.1-.1.2,0,0.3,0.1a1.69,1.69,0,0,1,.3.6,19.42,19.42,0,0,1,.7,3.3c0.3,2.2.5,4.4,0.8,6.6v0.5c0.2,2.8.3,5.7,0.5,8.5,0.1,1,.1,2,0.1,3,0,0.7.2,1.3,0.2,1.6,0.3,1.6-.1,1.8-1,1.6m13.6,28.2a20.07,20.07,0,0,1-.8-4.9,10.87,10.87,0,0,0-.1-1.8,3.33,3.33,0,0,1,0-1,9.62,9.62,0,0,0,.2-3.4,4.3,4.3,0,0,1,0-1.6c0.1-1.7-.1-3.4-0.1-5.2a2.92,2.92,0,0,0-.2-0.9,20.48,20.48,0,0,1-.5-2.4,10.39,10.39,0,0,0-.7-3.5,21.28,21.28,0,0,0-.8-2.7c-0.2-.9-0.3-1.9-0.5-2.8a38.52,38.52,0,0,1-.8-4.9,12.5,12.5,0,0,1-.3-1.9c-0.2-.6-0.2-1.3-0.4-1.9a2.77,2.77,0,0,1-.1-0.9,17.33,17.33,0,0,0-.3-3.2,12.66,12.66,0,0,0-.6-2.8c-0.2-.7-0.5-1.3-0.7-2a18.66,18.66,0,0,0-.7-2.2c-0.2-.7-0.4-1.4-0.6-2a3.53,3.53,0,0,1-.4-1.7l-0.6-1.5a2.61,2.61,0,0,1-.3-0.8,4.19,4.19,0,0,0-.4-1.5,4.45,4.45,0,0,1-.1-2.3,1.73,1.73,0,0,0,.1-1,5,5,0,0,0-.5-1.3,0.53,0.53,0,0,0-.2-0.3,1.4,1.4,0,0,0-1.5-.3,1.85,1.85,0,0,1-.7.2,7.21,7.21,0,0,0-3.3,2.1,0.76,0.76,0,0,0-.2.5,4.14,4.14,0,0,1-.5,1.9c0.2,0.5-.3.9-0.4,1.3a7.37,7.37,0,0,1-.4,1.4c-1,2.7-2,5.3-3,8a52,52,0,0,0-2.2,7.7c-0.8,3.6-1.5,7.2-2.2,10.8-0.1.3-.2,0.7-0.3,1a1.12,1.12,0,0,1-.7.8,8.8,8.8,0,0,1-1.5.5,4.26,4.26,0,0,0-2,1.5,0.92,0.92,0,0,0-.2,1,0.61,0.61,0,0,1-.1.6,0.74,0.74,0,0,0,.1,1.2,8.49,8.49,0,0,0,2.6,1.1,0.45,0.45,0,0,1,.4.5c-0.2,1.6-.5,3.2-0.7,4.8a47.32,47.32,0,0,0-.1,5.3c0,0.7.1,1.3,0.1,2,0,1.5-.1,3.1-0.2,4.6a3.08,3.08,0,0,1-.1,1,2.25,2.25,0,0,0-.1,1.4,3.4,3.4,0,0,1,.2,1.4,1.14,1.14,0,0,0,.3.8l1,1a1.14,1.14,0,0,0,.8.3,1.9,1.9,0,0,0,1.8-1c0.1-.3.3-0.5,0.4-0.8a1.54,1.54,0,0,0-.1-2.1,0.53,0.53,0,0,1-.2-0.3,1.66,1.66,0,0,1-.5-1.3v-1.6a4.05,4.05,0,0,1,0-1.1,20.9,20.9,0,0,0,.1-2.5,5.84,5.84,0,0,1,.2-1.9,8.75,8.75,0,0,0,.2-1.6,45.53,45.53,0,0,1,.4-5.3c0-.3.1-0.6,0.1-0.9a24,24,0,0,1,.3-2.8,1,1,0,0,1,.3-0.4,2.61,2.61,0,0,1,.8-0.3c1-.1,2-0.2,3-0.4a1.39,1.39,0,0,1,.9,0,13.4,13.4,0,0,1,2,.1,9.42,9.42,0,0,0,2.9-.1h0.4a0.76,0.76,0,0,1,.8.6c0,0.3.1,0.6,0.1,0.9l0.3,4.8c0.2,2,.3,4,0.6,6s0.3,4,.5,6a2.49,2.49,0,0,1-.3,1.7,2.23,2.23,0,0,0-.3,1.4,10.11,10.11,0,0,0,.3,1.7,1.61,1.61,0,0,0,.5,1.1,1.23,1.23,0,0,1,.4.8,5.8,5.8,0,0,0,1.1,3,19.4,19.4,0,0,1,1.5,2.4,0.78,0.78,0,0,0,.4.4,3.37,3.37,0,0,0,3.1.5c0.2-.1.5-0.1,0.7-0.2a1.38,1.38,0,0,0,.4-0.3,3.62,3.62,0,0,1,1.5-1.5,1.23,1.23,0,0,0,.4-0.8,2.78,2.78,0,0,1,.8-2.1,1.14,1.14,0,0,0,.3-0.8,4.14,4.14,0,0,0-.3-2.9c-0.5-.3-0.5-0.3-0.5-0.4m13.7,1.8a1.21,1.21,0,0,0,.7-1.3A1.43,1.43,0,0,1,73,102a1.51,1.51,0,0,1,.4-0.4,13,13,0,0,0,1.8-1.5,3.37,3.37,0,0,1,1.7-1.1,7.75,7.75,0,0,1,3-.7,4.33,4.33,0,0,0,.5-0.1l1.8-.3a6.82,6.82,0,0,0,2.7-1c0.2-.1.4-0.3,0.6-0.4a7.55,7.55,0,0,0,1.3-2.3,1.34,1.34,0,0,0,.1-0.5,1.38,1.38,0,0,0-.6-1.3c-0.9-.7-2-0.6-3.1-0.9h-0.5a50.49,50.49,0,0,0-5.3,1.2,7.09,7.09,0,0,0-2.1,1.1,7.68,7.68,0,0,1-2.5,1.4c-0.4.2-.7,0-0.7-0.5s-0.1-.8-0.1-1.2a2.77,2.77,0,0,0-.1-0.9,10,10,0,0,1-.4-2.4c0-.8-0.3-1.6-0.3-2.5v-1.1a2.72,2.72,0,0,0,0-.9,8.92,8.92,0,0,1-.3-2.8v-0.5c-0.4-1.1-.3-2.4-0.6-3.5a4.13,4.13,0,0,1-.2-1.9v-0.4a10.22,10.22,0,0,1,.1-3.5,1.65,1.65,0,0,0,0-.7c0-.7.1-1.3,0.1-2,0-.5.1-0.9,0.1-1.4a19.83,19.83,0,0,1,.3-3.5,42.6,42.6,0,0,1,.6-5,30.34,30.34,0,0,1,.6-4.2c0.1-.8.4-1.6,0.5-2.4,0.1-1,.4-2,0.5-3a8.24,8.24,0,0,1,.7-3.1,0.85,0.85,0,0,0,0-.7,1.34,1.34,0,0,0-1.3-1.1,1.5,1.5,0,0,0-1,.9,13.35,13.35,0,0,0-.7,1.8,19.66,19.66,0,0,0-1,3.2,54.3,54.3,0,0,1-1.3,5.8,21.42,21.42,0,0,0-.7,4.3,2.77,2.77,0,0,1-.1.9c-0.5,3-.9,6-1.3,9.1l-0.3,3.3c-0.1,1.2-.2,2.3-0.2,3.5a53,53,0,0,0,.2,6.9c0.2,1.9.2,3.7,0.3,5.6a32.4,32.4,0,0,0,.2,4.4,2.77,2.77,0,0,0,.1.9c0,0.3.1,0.7,0.1,1s-0.1.6-.1,0.8v0.4a0.9,0.9,0,0,0,.1.5l0.3,1.2a1.39,1.39,0,0,1,0,.9,0.45,0.45,0,0,0,.2.6,5.36,5.36,0,0,1,1.5,1.5c0.1,0.2.3,0.4,0.4,0.6a2.09,2.09,0,0,0,.6.4,0.75,0.75,0,0,1,.5.1c0.5,0.5,1.1.3,1.7-.2m92.7-51.8a3.18,3.18,0,0,0-.3-0.9,1.38,1.38,0,0,0-.3-0.4,5.58,5.58,0,0,0-.8-0.5,1.73,1.73,0,0,0-1.7-.1,10.91,10.91,0,0,0-1.1.6,9.76,9.76,0,0,0-1.8,1.7c-0.2.3-.5,0.5-0.7,0.8a1.55,1.55,0,0,0-.5,1.4,27.35,27.35,0,0,1,.4,5.7,10.45,10.45,0,0,0,0,2.5c0.1,1.2,0,2.4,0,3.6v1.6c0,1.8.1,3.6,0,5.3v0.7h0c-0.1,2.4-.6,9.9-1,11.1-0.5,1.4-1.6-.9-2.2-1.6s0.1-2,0-4a15,15,0,0,0-1-4.1,21.63,21.63,0,0,1,0-2.6,22.55,22.55,0,0,0,0-2.6c0-.7-0.2-3.1-1-4.1s0-2.5,0-3.6a7.76,7.76,0,0,0-.5-2.9c-0.5-1.9-.1-7.9-0.1-10.4v-0.7a1.06,1.06,0,0,0-.8-0.9,0.53,0.53,0,0,0-.3.2c-0.2.6-.4,1.2-0.6,1.9a35.77,35.77,0,0,0-.9,3.5c-0.3,1.9-.7,3.7-1,5.6-0.1.9-.3,1.8-0.4,2.7-0.2,2.2-.4,4.5-0.7,6.7,0,0.5-.1,1.1-0.1,1.6v7.5s0.1,3.1.1,4.6c0,1.8.1,3.7,0.2,5.5s0.5,3.8.6,5.7a11.27,11.27,0,0,0,.3,1.8c0.3,1.2.5,2.5,0.9,3.6,0.5,1.3,1.1,2.6,1.7,3.9a14,14,0,0,0,1.6,2.6,8.51,8.51,0,0,1,.9,1.4,1.21,1.21,0,0,0,.5.5,6.73,6.73,0,0,1,1.1.7,3.39,3.39,0,0,0,1.5.6,6.7,6.7,0,0,0,2,0,0.75,0.75,0,0,0,.7-0.5,3.88,3.88,0,0,0,.6-1.1,21.3,21.3,0,0,0,.3-2.5,5.82,5.82,0,0,1,.3-1.9,7.77,7.77,0,0,0,.4-3,4.4,4.4,0,0,1,.2-1.6,4.13,4.13,0,0,0,.2-1.9c0.2-1,.1-2,0.2-3a4.53,4.53,0,0,1,.3-1.6,5.82,5.82,0,0,0,.3-2.6,17.59,17.59,0,0,1,.4-5.1,60.49,60.49,0,0,0,1.3-7.2c0-.2.1-0.5,0.1-0.7,0.1-.5.1-1.1,0.2-1.6s0.1-1.2.2-1.8a23.8,23.8,0,0,0,.5-5.3,8.75,8.75,0,0,1,.2-1.6c0.2-1.2.4-2.3,0.5-3.5s0.1-2.3.1-3.4a59.28,59.28,0,0,0-1-6.3m15,13.8-0.1-.1a0.32,0.32,0,0,1,0-.3,10.07,10.07,0,0,0,.3-2.5,7.61,7.61,0,0,1,.3-2.1,13.06,13.06,0,0,1,1.2-3.3,2.66,2.66,0,0,0,.3-1.2,2.34,2.34,0,0,1,.2-1.2,11.07,11.07,0,0,0,.7-2.6,0.45,0.45,0,0,1,.4-0.3,0.53,0.53,0,0,1,.3.2c0.1,0.1.2,0.3,0.3,0.4a9.39,9.39,0,0,1,.6,1.5,17.67,17.67,0,0,1,.3,2.1,10.49,10.49,0,0,1-1.7,5.5c-0.8,1.1-1.5,2.3-2.3,3.4a2.36,2.36,0,0,1-.5.5h-0.3m12.1,41.1a3.85,3.85,0,0,1-.9-0.9,2.7,2.7,0,0,0-.7-0.8,8.52,8.52,0,0,1-1.7-2.5c-0.6-1.2-.9-2.6-1.4-3.8a4.71,4.71,0,0,1-.4-1.7,2.92,2.92,0,0,0-.2-0.9c-0.6-2-1.2-4-1.7-6a7.61,7.61,0,0,1-.3-2.1,5,5,0,0,0-.2-1.2c-0.2-.7-0.3-1.4-0.5-2.1a18.28,18.28,0,0,0-.8-2.5,28,28,0,0,1-1.3-4.1,16.58,16.58,0,0,0-1.6-4.9,0.9,0.9,0,0,1,.1-1c0.7-.9,1.3-1.8,2.1-2.7,0.7-.7,1.3-1.4,1.9-2.1a7.71,7.71,0,0,0,1.4-2.1c0.2-.5.5-1,0.7-1.5a5.73,5.73,0,0,0,.4-1.4c0.1-.5.3-0.9,0.4-1.4a2.92,2.92,0,0,0,.2-0.9,13.4,13.4,0,0,0,.1-2c0-.8-0.2-1.7-0.2-2.5a14.3,14.3,0,0,0-1.2-4.5,6,6,0,0,0-1.4-2.1,2.09,2.09,0,0,0-.6-0.4,5.24,5.24,0,0,0-2.5-.3,1.7,1.7,0,0,1-.7.1,1.86,1.86,0,0,0-1.5.9c-0.8,1-1,2.3-1.6,3.4-0.1.9-.3,1.9-0.4,2.8-0.1.5-.1,1.1-0.2,1.6-0.4,2-.6,4.1-1.2,6.1v0.2c-0.2,1-.3,2-0.5,3s-0.4,2.1-.5,3.2c-0.3,2.2-.7,4.5-1,6.7-0.2,1.6-.4,3.2-0.7,4.8-0.3,2.1-.8,4.2-1.2,6.3-0.3,1.6-.5,3.2-0.8,4.8-0.2,1.2-.3,2.4-0.4,3.5a19.83,19.83,0,0,1-.3,3.5,2.06,2.06,0,0,0,.3,1.5,4.51,4.51,0,0,1,.7,2.5,2.92,2.92,0,0,0,.2.9c0.4,0.9.7,1.9,1.1,2.8a11.4,11.4,0,0,0,1,1.9,14.63,14.63,0,0,0,1.3.9l0.1,0.1a1.64,1.64,0,0,0,1.2.2,4.48,4.48,0,0,1,1.1.1,1.16,1.16,0,0,0,1.2-1.2,8.6,8.6,0,0,0-.1-1.6c-0.2-.8-0.3-1.6-0.5-2.4a17.37,17.37,0,0,1-.5-3.9,17.2,17.2,0,0,1-.1-4.5,27.37,27.37,0,0,1,.4-4.3v-0.5a5.9,5.9,0,0,1,.2-1.4,8.6,8.6,0,0,0,.1-1.6c0-.7.1-1.4,0.1-2.1l0.1-.1a0.2,0.2,0,0,1,.2.1c0.1,0.3.3,0.7,0.4,1,0.6,2.8,1.2,5.6,1.9,8.3a37.82,37.82,0,0,0,2.3,6.7,19.11,19.11,0,0,0,3.6,5.3c0.5,0.6,1.2,1,1.7,1.6,0.1,0.1.3,0.2,0.4,0.3,0.4,0.2.8,0.5,1.2,0.7a0.88,0.88,0,0,0,.7.1,1.85,1.85,0,0,1,.7-0.2,1.17,1.17,0,0,0,1-.9c0.5-1.4.6-1.1-.3-2.4,0.1-.1-0.2-0.3-0.4-0.4m33.6-46.9c0.2-1.1.4-2.3,0.7-3.4a24.37,24.37,0,0,0,.6-2.6,18.93,18.93,0,0,1,1-3.6,1.26,1.26,0,0,1,1.8-1l2.3,0.6A3,3,0,0,0,234,50a0.53,0.53,0,0,0,.2-0.3,0.82,0.82,0,0,0,.1-0.7,2.57,2.57,0,0,0-.2-0.5,2.7,2.7,0,0,0-1.7-1l-2.1-.3c-0.4-.1-0.8-0.1-1.3-0.2a5.09,5.09,0,0,0-2.1-.6s-0.5-.5-0.7-0.3a1.49,1.49,0,0,0-.4.9c0,0.3-2.3,7.1-2.3,7.5s-1,4.6-1.1,5a45.2,45.2,0,0,0-1.5,5.5v0.2a13.61,13.61,0,0,1-1.2,1.8,0.82,0.82,0,0,0-.1.7c0.1,0.2.2,0.3,0.3,0.5a1.23,1.23,0,0,1,.2,1,7.57,7.57,0,0,0-.1,1.5c-0.2,1.6-.5,3.2-0.5,3.7a47.43,47.43,0,0,0-.3,9.3v0.2c0.4,3.5-.4,9,0.4,11.5a0.1,0.1,0,0,1-.1.1,1.06,1.06,0,0,0-.2,1.3c0.2,0.6.4,1.1,0.6,1.7a2.23,2.23,0,0,1,.3,1.4,3.71,3.71,0,0,0,.4,1.4c0.2,0.4.5,0.8,0.7,1.2a3.16,3.16,0,0,0,1.4,1.4,3.92,3.92,0,0,1,1,.8,0.84,0.84,0,0,0,.7.2c1-.4,2.1-0.7,2.5-1.8a1.38,1.38,0,0,1,.3-0.4,2.67,2.67,0,0,1,1.4-.7,5,5,0,0,0,3.1-1.7c0.3-.2.5-0.5,0.8-0.7a4.74,4.74,0,0,0,1-1,2,2,0,0,0,.5-1.5,1,1,0,0,0-.7-0.9,1.06,1.06,0,0,1-.5-0.2l-2.7-.9c-1-.4-2-0.1-3-0.4a0.88,0.88,0,0,0-.7.1,16,16,0,0,1-2.1.5c-0.1,0-.3,0-0.3-0.1a5.11,5.11,0,0,1-.6-2c0-.8-0.2-1.6-0.2-2.3,0-1-.1-2-0.2-3.1v-0.9a16.2,16.2,0,0,0-.1-2.2c-0.2-1.3,0-2.6-.1-4a20.9,20.9,0,0,0,.1-2.5c-0.1-.9.2-1.8,0.1-2.7a12.31,12.31,0,0,1,.4-3.8,0.57,0.57,0,0,1,.7-0.4,6.89,6.89,0,0,1,.8.3,0.76,0.76,0,0,0,1-.1,3.73,3.73,0,0,1,2.3-1,1,1,0,0,0,.7-0.2,1.31,1.31,0,0,1,1.2-.3,0.37,0.37,0,0,0,.3-0.1c0.3-.3.6-0.5,0.9-0.8a1.25,1.25,0,0,0,.3-1.2,6.92,6.92,0,0,0-1-1.9,1.69,1.69,0,0,0-1-.7c-1.2-.2-2.5-0.5-3.7-0.7a1.85,1.85,0,0,1-.7-0.2,0.66,0.66,0,0,1-.4-0.5,7.15,7.15,0,0,1,.3-2.5c0-.2.1-0.5,0.1-0.8m20.9,4.2a1.09,1.09,0,0,1-.5.1,0.37,0.37,0,0,1-.1-0.3v-0.5a6.15,6.15,0,0,0,.2-1.9v-0.4a15,15,0,0,0,.4-4.2,4.71,4.71,0,0,1,.4-1.7,0.68,0.68,0,0,1,.6-0.4c0.5,0,1,.1,1.4.1a0.87,0.87,0,0,0,.9-0.5,0.81,0.81,0,0,1,.9-0.4,1,1,0,0,1,.9.4,3,3,0,0,1,.6,2c0,0.3-.1.6-0.1,0.9-0.2,1.2-.6,2.4-0.9,3.6a4.87,4.87,0,0,0-.3.7,0.9,0.9,0,0,1-.6.6,8.26,8.26,0,0,0-1.3.7,1.18,1.18,0,0,1-1,.1,0.91,0.91,0,0,0-.8.4,4.62,4.62,0,0,0-.7.7m24.7,41.4a2.73,2.73,0,0,0-1.4-1.4c-0.3-.1-0.5-0.3-0.8-0.4a3.59,3.59,0,0,1-1.4-1,12.88,12.88,0,0,0-1.7-1.6,15.68,15.68,0,0,1-3.1-3.2,2,2,0,0,0-.6-0.7,2.36,2.36,0,0,1-.5-0.5,39.92,39.92,0,0,1-2.7-4.4,20,20,0,0,0-1-2.1,14.76,14.76,0,0,1-1.3-3.5c-0.1-.3-0.1-0.6-0.2-0.9a14.27,14.27,0,0,1-.8-2.2,20,20,0,0,0-1-2.1,20.13,20.13,0,0,0-1.4-2.5A14,14,0,0,1,252,78a10,10,0,0,0-.8-1.4,8.65,8.65,0,0,0-.7-1,19.4,19.4,0,0,0-1.5-2.4c-0.1-.2-0.3-0.4-0.4-0.6-0.3-.8-0.8-1.5-1.1-2.2a0.48,0.48,0,0,1,.1-0.5,12.9,12.9,0,0,0,1.6-.9,2.62,2.62,0,0,1,.9-0.5,1.42,1.42,0,0,0,.8-0.9,25.49,25.49,0,0,1,1.3-2.9,0.9,0.9,0,0,0,.1-0.5c0.1-.9.4-1.8,0.4-2.6a10.66,10.66,0,0,1,.6-3.1,8.63,8.63,0,0,0,.4-2.8,4.3,4.3,0,0,0-.8-2.7,0.9,0.9,0,0,1-.1-0.5,2.09,2.09,0,0,0-.4-0.6,10.43,10.43,0,0,0-3.8-1.5,15.17,15.17,0,0,1-2.1-.3,2.26,2.26,0,0,0-1.6.2,2.7,2.7,0,0,0-.8.7c-0.4.4-.4,0.5-0.2,0.9a1.24,1.24,0,0,1,.1,1.3,32,32,0,0,0-1.8,5.2c-0.2.7-.3,1.5-0.5,2.3l-0.3,2.7c-0.1,1.3-.3,2.6-0.4,3.9-0.4,2.6-.9,5.1-1.2,7.8a20.28,20.28,0,0,0-.3,4.3c0,0.6-.1,1.2-0.1,1.8a2.72,2.72,0,0,0,0,.9,24.52,24.52,0,0,1,.2,2.7c0.1,0.9.3,1.9,0.4,2.8s0.3,2,.5,3c0.3,1.5.6,2.9,0.8,4.4,0.2,1.3.4,2.6,0.5,3.9,0.1,1.8.2,3.6,0.3,5.3a1.49,1.49,0,0,0,.2.9,12.47,12.47,0,0,1,1,2.7,0.62,0.62,0,0,0,.3.4,2.29,2.29,0,0,1,1,.7,1.27,1.27,0,0,0,.6.4,1.37,1.37,0,0,0,1.5.1,1.79,1.79,0,0,0,.7-0.5,0.86,0.86,0,0,0,.3-0.6,7.46,7.46,0,0,0-.4-2.6,12.76,12.76,0,0,1-.7-2.8c-0.2-.9-0.4-1.8-0.7-2.8a9.46,9.46,0,0,1-.5-3.3,5.54,5.54,0,0,0-.2-1.8l-0.3-1.8c-0.2-1.9-.4-3.9-0.6-5.8-0.1-.9-0.1-1.9-0.2-2.8a28,28,0,0,1,0-2.9c-0.1-1,.3-2-0.1-3v-0.2a4.48,4.48,0,0,0,0-2.3,14.92,14.92,0,0,1,.2-2.1,1.85,1.85,0,0,1,.2-0.7,0.34,0.34,0,0,1,.3-0.2,1,1,0,0,1,.3.1,17.3,17.3,0,0,1,1.4,3.1,33.82,33.82,0,0,1,1.1,3.4c0.6,2.1,1.3,4.2,2,6.3a34.86,34.86,0,0,0,2.2,5.3,77.08,77.08,0,0,0,4.4,7.2,46.49,46.49,0,0,0,4.9,5.9c1.3,1.3,2.6,2.6,3.9,4a7.55,7.55,0,0,0,1.4,1.1,2.23,2.23,0,0,0,1.4.3,15.53,15.53,0,0,0,2.1-.4,0.68,0.68,0,0,0,.5-0.3,2.85,2.85,0,0,0,.5-3M112.29,104a5.81,5.81,0,0,0,3.5-1.7,2.58,2.58,0,0,0,.8-1.3,1.85,1.85,0,0,1,.2-0.7,0.7,0.7,0,0,0-.4-0.9,17.68,17.68,0,0,0-3.8-1.5,11.56,11.56,0,0,0-3.7-.7c-1.4,0-2.9.1-4.3,0.2a3.92,3.92,0,0,0-1.8.4,24.69,24.69,0,0,1-2.9,1c-1.1.4-2.1,0.8-3.2,1.2a0.51,0.51,0,0,1-.7-0.4,5.27,5.27,0,0,1-.3-1.2c0-.6.1-1.2,0.1-1.8v-1.4a2.83,2.83,0,0,1-.2-2.2,1.65,1.65,0,0,0,0-.7,10.48,10.48,0,0,1,.1-2.5c0.2-1.2.5-2.5,0.6-3.7a22,22,0,0,0,.7-3.7,0.75,0.75,0,0,1,.1-0.5,9.51,9.51,0,0,0,.7-2.4c0.2-.8.5-1.6,0.7-2.4a0.88,0.88,0,0,1,1-.5c0.3,0.1.7,0.2,1,.3a10.66,10.66,0,0,0,3,.6,5.75,5.75,0,0,0,3.1-.8,0.81,0.81,0,0,0,.3-0.9,2.61,2.61,0,0,1-.3-0.8,2.35,2.35,0,0,0-.7-1.4,4.1,4.1,0,0,0-2.3-1.3,8,8,0,0,0-2.1-.5,3.81,3.81,0,0,1-1-.3,0.59,0.59,0,0,1-.2-0.5c0.3-1.9.6-3.8,1-5.6a7.5,7.5,0,0,1,.9-2.5,2.61,2.61,0,0,0,.3-0.8,40.72,40.72,0,0,0,1.6-6.7c0.2-.8.3-1.5,0.5-2.3a5,5,0,0,1,.5-1.3,21,21,0,0,0,1.3-2.6,1.94,1.94,0,0,1,.9-1.1,1.83,1.83,0,0,0,.8-1.3,6.55,6.55,0,0,0,0-1.4,2.11,2.11,0,0,0-1.1-1.8,0.76,0.76,0,0,0-.5-0.2,6.89,6.89,0,0,0-3.2.1,13.55,13.55,0,0,0-4.4,2c-1,.7-1.9,1.4-2.9,2.1a24.24,24.24,0,0,0-3.1,2.5c-0.4.4-.9,0.8-1.3,1.2l-1.8,1.5a2.57,2.57,0,0,0-1,2.2c0,0.3-.1.7-0.1,1.1a1.69,1.69,0,0,0,.3,1,2.38,2.38,0,0,0,1.3.9,1.61,1.61,0,0,0,1.1-.5,4.36,4.36,0,0,0,1.6-1.7,7.46,7.46,0,0,0,.7-1.2,3.81,3.81,0,0,1,1.1-1.4c1.3-.9,2.3-2.1,3.8-2.8a1.38,1.38,0,0,0,.4-0.3c0.4-.3.9-0.6,1.3-0.9,0.2-.1.6,0,0.6,0.2a8.6,8.6,0,0,1-.1,1.6c-0.3.9-.5,1.8-0.8,2.7a53.25,53.25,0,0,0-1.6,5.7c-0.1.3-.1,0.7-0.2,1a12,12,0,0,1-.8,2.7c-0.5,1.3-.9,2.7-1.3,4.1s-0.9,2.6-1.2,3.9c0,0.1-.1.2-0.1,0.3a0.66,0.66,0,0,1-.5.4,20.08,20.08,0,0,1-2.5.1h-1.9a2.92,2.92,0,0,0-.9.2c-0.8.3-.9,0.5-0.7,1.3a5,5,0,0,0,.5,1.3,1.4,1.4,0,0,0,1.2.9,3.29,3.29,0,0,0,1.4,0,5.44,5.44,0,0,1,1.8,0,0.54,0.54,0,0,1,.4.5c-0.1.5-.3,1-0.4,1.6a14.08,14.08,0,0,0-.5,3.5,3.55,3.55,0,0,1-.2,1l-0.6,2.4c-0.2.9-.2,1.8-0.4,2.6a38.84,38.84,0,0,0-.4,4.8c-0.1,1.9-.1,3.8-0.2,5.7a10.68,10.68,0,0,1-.3,2.5,18.66,18.66,0,0,0-.4,2.5,4.55,4.55,0,0,0,.5,2.8,5.11,5.11,0,0,0,3.9,2.9,1.39,1.39,0,0,0,.9,0,13.41,13.41,0,0,1,4.4-1,5.68,5.68,0,0,0,2.2-.7,4.05,4.05,0,0,1,.9-0.5,13.35,13.35,0,0,1,1.8-.7l2.3-.3a9.38,9.38,0,0,0,2.4-.6h0.2a2.7,2.7,0,0,0,1.9-.6h0.7m102.6,1.4-0.3-.3a8.12,8.12,0,0,1-1-.9,8.79,8.79,0,0,1-.6-1,0.1,0.1,0,0,0-.1-0.1c-0.4-.8-1.1-2-1.4-2.5-0.1-.2-0.1-0.3-0.2-0.5a45.84,45.84,0,0,1-1-6.6c0-.9-0.1-1.8-0.1-2.7a6.75,6.75,0,0,1,.2-1.4,16,16,0,0,0,.5-2.1,12.86,12.86,0,0,1,.4-1.9,2.22,2.22,0,0,0-.1-1.6,0.81,0.81,0,0,1,.4-0.9c0.2-.1.3-0.1,0.5-0.2,1.3-.9.6-2.7,0.5-3.1a2.24,2.24,0,0,0-1.8-1.7c-1.3,0-3.6-.5-5.3,1.9a0.48,0.48,0,0,0-.1.5,3,3,0,0,1-.3,2.6,0.81,0.81,0,0,0,.3.9c0.1,0.1.3,0.2,0.4,0.3a3,3,0,0,0,.8.4,0.75,0.75,0,0,1,.4.7c0,0.5-1,2.8-1,3.3a18.1,18.1,0,0,0-.3,2.3c0,0.4-.2,2-0.8,1.1a8.45,8.45,0,0,1-1.3-2.7,50.5,50.5,0,0,1-1.8-9.4c-0.2-1.2-.1-2.5-0.3-3.7a27.15,27.15,0,0,1-.1-2.8,30.45,30.45,0,0,1,2.3-11.2,6.94,6.94,0,0,0,.5-1.3c0.2-.6.5-1.2,0.7-1.8a9.38,9.38,0,0,1,.6-1.5,2.44,2.44,0,0,1,.9-1.1,9.76,9.76,0,0,0,1.8-1.7,24.14,24.14,0,0,0,2.8-5.8,3.72,3.72,0,0,0,.2-1.8c-1-1.4-3-.1-3.3.2-1.2,1.1-2.7,1.8-3.8,2.9a11.53,11.53,0,0,0-1.9,2.6,21.41,21.41,0,0,1-1.3,1.9,23.92,23.92,0,0,0-1.3,2.1c-0.6,1.1-1.1,2.3-1.6,3.4a24,24,0,0,1-1.1,2.3,24.36,24.36,0,0,0-1.9,4.4,34.74,34.74,0,0,0-1.6,7.1c-0.1.9-.3,1.9-0.4,2.8a16.33,16.33,0,0,0-.1,3.1v1.4a4,4,0,0,0,.3,1.9,3.18,3.18,0,0,1,.2,1.4,7.49,7.49,0,0,0,.2,2.1,3.75,3.75,0,0,1,.1,1.1,4.53,4.53,0,0,0,.3,1.6,2.92,2.92,0,0,1,.2.9,12.31,12.31,0,0,0,1.6,4.9,29.28,29.28,0,0,1,1.9,4,37.62,37.62,0,0,0,2.3,3.6,18.34,18.34,0,0,0,3.2,3.6c0.8,0.8,1.8,1.2,2.6,1.9a10.29,10.29,0,0,0,4.3.8h2.3a2.38,2.38,0,0,0,2.5-1.6c0-.2.2-0.7,0.2-0.9h0v-0.1c0-.1.1-0.3,0.1-0.4v-0.2c-0.2-.3-0.2-0.4-0.3-0.5h0m-88.4-41.7a0.54,0.54,0,0,1,.4-0.5,0.35,0.35,0,0,1,.2-0.1,3.29,3.29,0,0,1,3.5,1.2,13.33,13.33,0,0,1,1.7,4.3,19.14,19.14,0,0,1,.4,5.1v1.2a12.75,12.75,0,0,0,.2,2.8,8.83,8.83,0,0,1,.2,2.8v2c0,1.1-.2,2.2-0.3,3.4-0.2,1.6-.7,4.4-0.8,5s-1.3,2-1.7-.5a50.46,50.46,0,0,0-1.7-6.4,10,10,0,0,1-.4-2.4c-0.1-1.1-.2-2.1-0.3-3.2-0.1-.6-0.3-2.4-0.3-2.6a14.19,14.19,0,0,0-.6-4.6,4.87,4.87,0,0,1-.1-1.2,26.15,26.15,0,0,0,0-2.8,11,11,0,0,0-.2-1.8,3.33,3.33,0,0,1-.2-1.7m0.7-14.3a1.91,1.91,0,0,1,.3-0.8,1.1,1.1,0,0,1,1.5-.5,3.18,3.18,0,0,1,.9.3,0.66,0.66,0,0,1,.4.5,4.5,4.5,0,0,1-.1,2.3,16.92,16.92,0,0,1-2.6,5.2,0.53,0.53,0,0,1-.3.2H127a0.1,0.1,0,0,1-.1-0.1,0.9,0.9,0,0,1-.1-0.5v-2.1a39.34,39.34,0,0,1,.4-4.5M119,93.76a12.53,12.53,0,0,0,1.9,5.3,1.34,1.34,0,0,0,1.3.8c0.5-.1.7,0.4,1.1,0.6a1.09,1.09,0,0,1,.4.9,6,6,0,0,1-1,2.5,0.45,0.45,0,0,0,0,.5c0.6,1.1,2.3,1.4,2.7,1.5a4.33,4.33,0,0,0,1.6-.1c0.5-.2,1-0.3,1.5-0.5a4.19,4.19,0,0,1,1.6-.4,1.78,1.78,0,0,0,1-.4c1.2-.9,3.4-1.5,4.2-2.8,0.6-1.1,1.4-2.3,1.9-3.4a34.35,34.35,0,0,0,.9-4c0-.4.1-0.7,0.1-1.1a6.2,6.2,0,0,1,.4-2.3,10.27,10.27,0,0,0,.5-2.4,4.58,4.58,0,0,0-.1-2,11,11,0,0,1-.2-1.8,7.61,7.61,0,0,0-.3-2.1,3.72,3.72,0,0,1-.2-1.8c0.2-1.8.4-3.7,0.6-5.5a2.72,2.72,0,0,0,0-.9,15.53,15.53,0,0,0-.4-2.1,3.59,3.59,0,0,0-.7-1.8,3.13,3.13,0,0,1-.5-1,3.7,3.7,0,0,0-.5-1.1,3.81,3.81,0,0,1-.5-1.5,9.27,9.27,0,0,0-2-3.5,7.82,7.82,0,0,0-3.5-1.8,13.09,13.09,0,0,1-2.8-.9c-0.1,0-.1-0.2-0.1-0.3a4.44,4.44,0,0,1,1.1-.8,2.21,2.21,0,0,0,1.1-1.4,5.27,5.27,0,0,0,.3-1.2,4.92,4.92,0,0,1,.6-1.7c0.5-.8.9-1.7,1.4-2.5a4.76,4.76,0,0,0,.9-2.5c0-.5.3-1.8-0.1-2.3a5.1,5.1,0,0,0-2.4-1.6,10.67,10.67,0,0,0-3.8-.7c-0.5.1-1,.1-1.4,0.2-0.7.1-.7,0.2-0.6,0.9a1.65,1.65,0,0,1,0,.7,8.8,8.8,0,0,1-.5,1.5,19.3,19.3,0,0,0-1.1,3.4c-0.2.8-.4,1.5-0.6,2.2a72.33,72.33,0,0,0-2.1,10.3c-0.2,1.4-.4,2.7-0.6,4s-0.4,2.5-.6,3.7-0.2,2.5-.4,3.7a11,11,0,0,0-.2,1.8c0,1-.1,1.9-0.1,2.8a22.56,22.56,0,0,0,0,4.5,25.39,25.39,0,0,1,0,3.9,20.93,20.93,0,0,0,.2,4.5m-96.2-.4a7.49,7.49,0,0,1-.4-1.6,24.6,24.6,0,0,0-.7-2.9c-0.3-1.2-.7-2.4-1.1-3.6a21.24,21.24,0,0,0-1-3.6,4.33,4.33,0,0,0-.1-0.5,19.31,19.31,0,0,0-1.5-4c-0.5-.9-1.1-1.9-1.6-2.8a27.2,27.2,0,0,1-2.4-5.8c-0.4-1.3-.8-2.6-1.1-3.9-0.5-2-1-3.9-1.5-5.9-0.2-1-.3-2.1-0.5-3.2-0.1-.6-0.1-1.2-0.2-1.8a35.4,35.4,0,0,1-.2-4.6c0.2-1.4.3-2.7,0.4-4.1,0-.3.2-0.7,0.2-1a15.54,15.54,0,0,0,.5-2.3,0.75,0.75,0,0,1,.1-0.5,32.18,32.18,0,0,1,2.3-5c0.2-.3.4-0.5,0.5-0.7a0.81,0.81,0,0,1,.8-0.4,0.75,0.75,0,0,0,.5-0.1,0.34,0.34,0,0,0,.2-0.3,0.91,0.91,0,0,0-.3-0.8c-0.2-.1-0.5-0.1-0.7-0.2a1.29,1.29,0,0,0-1.2.1l-0.6.3-1.8.9-1.5,1.8a2.19,2.19,0,0,0-.3.5,20.49,20.49,0,0,1-3,3.6,10.63,10.63,0,0,0-.9,1.1A11.54,11.54,0,0,1,4.29,44a2.09,2.09,0,0,0-.4.6,32.51,32.51,0,0,1-2.1,3.7,2.14,2.14,0,0,0-.4,1.2,3.71,3.71,0,0,1-.4,1.4A5.36,5.36,0,0,0,.49,52a2.92,2.92,0,0,0-.2.9c0,0.5.2,0.9,0.2,1.4s-0.3.9-.3,1.4v1.1a3,3,0,0,0,0,2.1v0.4a5.54,5.54,0,0,0,.2,1.8,13.93,13.93,0,0,1,.4,3.5,18.35,18.35,0,0,0,.6,4.7,25.82,25.82,0,0,0,.8,2.6,8.52,8.52,0,0,1,.4,2.3,5.69,5.69,0,0,0,.4,2.6,1.7,1.7,0,0,1,.1.7,2.88,2.88,0,0,0,.5,2,6.37,6.37,0,0,1,.2.7,6.5,6.5,0,0,0,.9,2.3,5.56,5.56,0,0,1,.9,1.7,2.7,2.7,0,0,0,.7.8,0.87,0.87,0,0,1,.5.7,2.09,2.09,0,0,0,1.1,1.5,3.18,3.18,0,0,1,1,1,10.63,10.63,0,0,0,.9,1.1,7.64,7.64,0,0,1,.9.9l0.6,0.6a1.73,1.73,0,0,0,1.8.5h0.2a0.56,0.56,0,0,1,.6.2,5.72,5.72,0,0,0,.7.8,2.92,2.92,0,0,1,1.1,1.6c0.5,1.3.9,2.6,1.3,3.9a3,3,0,0,0,.5,1.3,4.14,4.14,0,0,1,.9,2.3c0.1,0.6.3,1.2,0.4,1.7a5.66,5.66,0,0,0,.3,1.8,3.3,3.3,0,0,1,0,1.4,11.28,11.28,0,0,1-.8,2.4,16.17,16.17,0,0,1-2.5,3.9,4.36,4.36,0,0,1-1.4,1.3,4.9,4.9,0,0,0-1.8,1.7,7,7,0,0,1-3.9,2.4,11.27,11.27,0,0,1-1.8.3,1.59,1.59,0,0,0-1.2.9,5.26,5.26,0,0,0-.4,1.7,0.53,0.53,0,0,0,.2.3,1.52,1.52,0,0,0,1.1.6,7.77,7.77,0,0,0,1.3-.1c0.7,0.2,1.6-.3,2.5-0.7a0.2,0.2,0,0,0,.2-0.1,2.29,2.29,0,0,0,1-.7,11,11,0,0,1,1.1-1,17,17,0,0,0,1.9-1.9c0.8-.9,1.6-1.8,2.3-2.7a19,19,0,0,0,2.2-3.3c0.5-.8.9-1.7,1.4-2.5a20.24,20.24,0,0,0,2.2-6.4,29.56,29.56,0,0,0-.3-8.9c0.5,0,.5-0.1.4-0.1"/>
    <path
        d="M366.29,71.16c-0.6,3.8-1.2,7.5-2.1,11.2-0.1.2-.1,0.5-0.2,0.7a47.31,47.31,0,0,1-2.5,6.6c-0.5,1-.9,2.1-1.4,3.2a2.12,2.12,0,0,1-.3.7,16.51,16.51,0,0,1-2.6,3.2c-0.1.1-.3,0.1-0.3-0.1a3.81,3.81,0,0,1-.3-1,16.48,16.48,0,0,0-.4-3.2c-0.1-.4,0-0.8-0.1-1.3a13.55,13.55,0,0,0-.2-2,1.39,1.39,0,0,1,0-.9,4.4,4.4,0,0,0,.2-1.6c0-1-.1-2-0.1-3.1a9.06,9.06,0,0,0,.1-2.3c0-.4-0.1-0.8-0.1-1.3a7,7,0,0,1,.1-2.5c0.1-.3.1-0.6,0.2-0.9a10.07,10.07,0,0,0,.9-3.8c0.2-1.6.1-3.1,0.3-4.7v-0.5a7.07,7.07,0,0,1,.2-2.5,3.75,3.75,0,0,0,.1-1.1,2.77,2.77,0,0,1,.1-0.9,5.66,5.66,0,0,0,.3-1.8,17.56,17.56,0,0,1,.6-3.9,1.7,1.7,0,0,0,.1-0.7,2.34,2.34,0,0,1,.2-1.2,4.13,4.13,0,0,1,1.1-.7,0.53,0.53,0,0,1,.3-0.2H361a14.31,14.31,0,0,1,1.5,1.1,3,3,0,0,1,.5.7,9.29,9.29,0,0,1,.5,1,21.16,21.16,0,0,1,1.1,2.1,12.82,12.82,0,0,1,.5,2.7c0.1,0.7.2,1.3,0.3,2a23.37,23.37,0,0,0,.7,4.5,6.64,6.64,0,0,1,.1,1.3,1.63,1.63,0,0,1,.1,1.2m4.2-5.4c-0.1-.9-0.3-1.8-0.4-2.7a12,12,0,0,0-1.7-4.9c-0.7-1.1-1.5-2.2-2.2-3.3a1.21,1.21,0,0,0-.5-0.5,29,29,0,0,0-2.9-1.9c-0.9-.4-1.8-0.8-2.6-1.2a4.15,4.15,0,0,0-1.6-.3h-0.4c-1.1,0-1.1-.1-1.2,1a2.77,2.77,0,0,1-.1.9c-0.2,1-.5,2-0.7,3l-1.2,6c-0.4,2.3-.8,4.6-1.2,7a49.81,49.81,0,0,0-.9,6.6c0,0.4-.1.7-0.1,1.1a34.93,34.93,0,0,0-.6,6.5,4.1,4.1,0,0,1-.1,1.1c-0.2,1.5-.3,3-0.5,4.5-0.1,1-.1,2-0.2,3.1v2.5c0,1.1,0,2.4.1,3.8a10.5,10.5,0,0,0,.8,3.5c0.2,0.4.3,0.8,0.5,1.2a2.23,2.23,0,0,1,.3,1.4,0.75,0.75,0,0,0,.1.5,0.45,0.45,0,0,0,.5.4c0.8-.1,1.6-0.1,2.4-0.2a3.25,3.25,0,0,0,2.6-1.5c0.3-.5.7-1,1-1.5a10.91,10.91,0,0,1,2.1-2.7,9.51,9.51,0,0,0,1.5-2c0.6-1.1,1-2.2,1.5-3.3a8.26,8.26,0,0,1,.7-1.3,13.82,13.82,0,0,0,1.8-3.4,43.45,43.45,0,0,0,2.4-8c0.1-.9.4-1.8,0.5-2.7,0.2-1.3.3-2.5,0.4-3.8a47,47,0,0,0,.1-6.5,21.13,21.13,0,0,0-.2-2.4m-25.1,35a8.3,8.3,0,0,0-.6-2.1,2.39,2.39,0,0,1-.2-0.9,15.06,15.06,0,0,1,.1-3,14,14,0,0,0-.4-4.1,9,9,0,0,1-.2-2.3,12.8,12.8,0,0,0-.2-3.9c-0.1-1.3-.2-2.5-0.2-3.8a17.11,17.11,0,0,0-.3-3.9v-0.5c0-1.3-.1-2.6,0-4v-1.4a2.92,2.92,0,0,0-.2-0.9,4.71,4.71,0,0,1-.4-1.6v-1a4.82,4.82,0,0,0,0-1.2v-5.5a7.49,7.49,0,0,1,.4-1.6,2.92,2.92,0,0,0,.1-1.6,3.67,3.67,0,0,1-.1-1.8,21.05,21.05,0,0,0-.2-2.5,1.06,1.06,0,0,0-.4-0.6,0.37,0.37,0,0,0-.3-0.1,6,6,0,0,0-1.3.9,0.91,0.91,0,0,0-.4.8c-0.1.7-.1,1.3-0.2,2a6.73,6.73,0,0,0,.1,2,15.35,15.35,0,0,1,.2,4.3l-0.3,3.9a28.25,28.25,0,0,0-.2,2.9c0,1.1.1,2.3,0.1,3.4a1.7,1.7,0,0,0,.1.7,13.68,13.68,0,0,1,.2,2.9c0,1.7-.1,3.5-0.2,5.2h0a28.1,28.1,0,0,0,.1,2.9v0.9c0,0.7-.1,1.3-0.1,2s-0.1,1.3-.1,2c0,0.1-.1.2-0.1,0.3a0.44,0.44,0,0,1-.5.1c-0.1-.1-0.2-0.1-0.3-0.2-0.6-1.1-1.1-2.1-1.7-3.2a6.81,6.81,0,0,1-.8-3.1,8.55,8.55,0,0,1,0-1.6,8.61,8.61,0,0,0-.3-2.8,27.79,27.79,0,0,0-1.2-3.8,6.9,6.9,0,0,0-.3-0.8,25.36,25.36,0,0,0-2-5.2c-1.4-2.7-2.7-5.5-4-8.3-0.4-.9-0.7-1.9-1.1-2.9a1.71,1.71,0,0,1,.1-1.7,0.37,0.37,0,0,0,.1-0.3,2.2,2.2,0,0,0-.2-1.4,0.94,0.94,0,0,0-.7-0.5,5.33,5.33,0,0,1-1.9-1.3c-0.2-.2-0.5-0.2-0.7.2a9.68,9.68,0,0,0-1.4,3.3,7.37,7.37,0,0,1-.4,1.4,10.93,10.93,0,0,0-.5,1.7c-0.4,1.7-.9,3.4-1.3,5.1-0.6,2.5-1.3,5-1.9,7.5-0.4,1.5-.6,2.9-0.9,4.4a33.17,33.17,0,0,0-1,7.7v0.4c-0.2,1.1-.2,2.1-0.4,3.2a54.65,54.65,0,0,0-.3,7c0,1.3.4,2.5,0.4,3.7a4.25,4.25,0,0,0,.2,1.1c0,0.1.1,0.2,0.1,0.3a3,3,0,0,0,.4,1,11.9,11.9,0,0,0,1.9,2,1.7,1.7,0,0,0,1.4,0c0.2-.2.5-0.4,0.7-0.6a1.38,1.38,0,0,0,.5-0.9,11.34,11.34,0,0,0,.2-4.1c-0.1-.4-0.1-0.7-0.2-1.1a12.29,12.29,0,0,1-.2-2.7V90a72.35,72.35,0,0,1,.4-9.3,12.29,12.29,0,0,0,.2-2.7,8.75,8.75,0,0,1,.2-1.6,45.42,45.42,0,0,0,.9-5.1c0.1-.7.3-1.3,0.4-1.9a9.26,9.26,0,0,1,.4-2.3,11.63,11.63,0,0,0,.4-1.8,3.71,3.71,0,0,1,.4-1.4c0.1-.2.3-0.4,0.4-0.3s0.2,0.1.3,0.2a3,3,0,0,1,.4.8,58.79,58.79,0,0,1,2.7,8.4c0.4,1.6.7,3.2,1,4.8s0.7,3.4,1.2,5.1a26,26,0,0,0,2.1,5.5c0.7,1.4,1.6,2.7,2.4,4.1,1,1.7,1.9,3.3,2.9,5a1.34,1.34,0,0,1,.2.9,1.09,1.09,0,0,0,.7,1,0.49,0.49,0,0,1,.3.6,1.41,1.41,0,0,0,.1.9c0.1,0.2.3,0.4,0.4,0.6a2.94,2.94,0,0,0,1,1.6c0.4,0.4,1,.9,1.5,1.3l0.9,0.6a0.91,0.91,0,0,0,1,0,1.06,1.06,0,0,1,.5-0.2,1.76,1.76,0,0,0,.9-1,0.85,0.85,0,0,0,0-.7,6.23,6.23,0,0,1-.8-2.3m-39.8-36.3a13.33,13.33,0,0,0,0,2c0,0.7-.1,1.9-0.1,2.6a0.64,0.64,0,0,1-.5.5h-1.9c-0.1,0-.4-0.1-0.3-0.3s0.1-.3.1-0.4c0.4-1.2.9-3,1.3-4.2a19.81,19.81,0,0,0,.8-3.5c0-.2.1-0.3,0.1-0.5l0.1-.1a0.1,0.1,0,0,1,.1.1,6.9,6.9,0,0,0,.3.8v1.4a4.22,4.22,0,0,1,0,1.6m4.6,5.2a0.1,0.1,0,0,1-.1-0.1,2.08,2.08,0,0,1-.9-1.9v-0.5c-0.1-2.1-.1-4.2-0.2-6.3a12.72,12.72,0,0,1,.2-3.4,2.77,2.77,0,0,0,.1-0.9,17.06,17.06,0,0,0-.3-4.5,5,5,0,0,1,.2-2.7c0.1-.3.2-0.7,0.3-1a0.75,0.75,0,0,0-.1-0.5c-0.2-.2-0.5-0.4-0.7-0.6a0.92,0.92,0,0,0-1-.1,11.46,11.46,0,0,1-2.3,1,0.73,0.73,0,0,0-.6.9,1.14,1.14,0,0,1-.3.8,2.53,2.53,0,0,0-.6,1.5,1.69,1.69,0,0,1-.3.6,1.14,1.14,0,0,0-.3.8,3,3,0,0,1-.2,1c-0.7,2.3-1.4,4.7-2.2,7.1s-1.5,4-2.2,6.4l-0.6,1.5a1.21,1.21,0,0,1-.5.5c-0.6.1-1.2,0.3-1.8,0.4a0.93,0.93,0,0,0-.6,1.2c0.1,0.1.1,0.2,0.2,0.3,0.4,0.4.7,0.8,1.1,1.2a0.78,0.78,0,0,1,.2.8c-0.1.2-.1,0.5-0.2,0.7-0.8,2.8-.6,1.9-1.3,4.8-0.2.9-.3,1.4-0.5,2.3a16.28,16.28,0,0,0-.7,3c0,0.3-.1.6-0.1,0.9-0.1.6-.2,1.8-0.3,2.8a1,1,0,0,0,.2.7l0.4,0.4a4.86,4.86,0,0,1,1.4,1.1,1.09,1.09,0,0,0,1.5.1,5.8,5.8,0,0,1,1.2-1,0.68,0.68,0,0,0,.4-0.6,5.64,5.64,0,0,0,.4-1.2,6.94,6.94,0,0,1,.5-1.3,12.65,12.65,0,0,0,.3-2.8,17.43,17.43,0,0,1,1.3-4.9,20.54,20.54,0,0,0,.7-3.4,0.85,0.85,0,0,1,1-.8,8.33,8.33,0,0,1,2.2.3,1,1,0,0,1,.7.9,33.69,33.69,0,0,1,.1,5.5,3.29,3.29,0,0,0,0,1.4,2.72,2.72,0,0,1,0,.9,12.21,12.21,0,0,0,.1,2.7c0.1,1.1.1,2.2,0.2,3.2a8.6,8.6,0,0,0,.1,1.6,35.93,35.93,0,0,1,.3,4.7,28.1,28.1,0,0,1-.1,2.9,4.36,4.36,0,0,0,.9,2.9,1.09,1.09,0,0,0,1.3.4,0.82,0.82,0,0,0,.5-0.5,26.6,26.6,0,0,0,.3-2.8,20.62,20.62,0,0,0-.1-4.3,12.12,12.12,0,0,1,.1-3.8,14.47,14.47,0,0,0,.1-3.6c0-1.6-.2-7.6-0.3-8.7a7.41,7.41,0,0,1,.1-2.1,3,3,0,0,1,.4-1c0.4-.6.9-1.2,1.3-1.7a1.8,1.8,0,0,0,.3-1.2,2.7,2.7,0,0,0-1.2-2m-10.7,29.1a14.61,14.61,0,0,0-4.9-2.2,33,33,0,0,0-4.5-1.1,7.86,7.86,0,0,0-4,.4c-1.1.4-2-.1-1.6-1.3a5.36,5.36,0,0,0,.2-2.8,2,2,0,0,1,0-1.1,4.08,4.08,0,0,0,.1-1.9,48.86,48.86,0,0,1-.3-5.4c0.1-1-.1-4.3,0-5,0.1-1.1.1-2.1,0.1-3.2,0-.9.1-4.2,0-5a4.05,4.05,0,0,1,0-1.1,7.72,7.72,0,0,0,.2-1.5,34.22,34.22,0,0,1,.4-4.6c0.2-1.1.2-3,.3-4.2,0-.6.1-1.2,0.1-1.8s0.2-2.8.3-3c0.4-1.3.4-2.7,0.9-4a21.09,21.09,0,0,1,1.2-4.3,3.55,3.55,0,0,0,.2-1,14.72,14.72,0,0,1,.4-3.6,12.67,12.67,0,0,0,.4-3.4,1.73,1.73,0,0,0-1.6-1.7h-1.1a5.7,5.7,0,0,0-1.3.1,8.8,8.8,0,0,0-.5,1.5,27.69,27.69,0,0,1-1.2,4.1c-0.5,1.4-1.6,4.8-1.7,5.1-0.3,1-.5,2.1-0.8,3.1-0.5,1.7-1,3.3-1.4,5-0.5,2.1-1,4.2-1.4,6.3a42.12,42.12,0,0,0-1.2,7.1c0,0.2-.1.5-0.1,0.7a35.32,35.32,0,0,0-.5,5.6,25.81,25.81,0,0,1-.3,4.8,29.85,29.85,0,0,0-.4,7.3c0,0.4.1,0.7,0.1,1.1,0.4,1.9.7,3.9,1.2,5.8,0.3,1.3.8,2.5,1.1,3.8a21,21,0,0,0,2.1,5.2,4.9,4.9,0,0,0,1.7,1.8,1.59,1.59,0,0,0,1.2.4H284a1.75,1.75,0,0,0,1.8-1,3.17,3.17,0,0,1,1.6-1.4,12,12,0,0,1,5.3-.1,13.4,13.4,0,0,0,2-.1c1-.1,2,0.3,3.7-0.3a3.33,3.33,0,0,0,1.7-2.3,0.75,0.75,0,0,0-.1-0.5c-0.1.1-.3-0.1-0.5-0.3"/>
</svg>
